<svg xmlns="http://www.w3.org/2000/svg" width="800" height="800" viewBox="0 0 24 24" fill="none" stroke="#2C2018" stroke-width="2.5" stroke-linecap="round" stroke-linejoin="round">
  <path d="M3 15C3 13 4.5 10.5 7 10.5C9.5 10.5 10 12 12 12C14 12 14.5 10.5 17 10.5C19.5 10.5 21 13 21 15C21 18.5 18.5 20 12 20C5.5 20 3 18.5 3 15Z"/>
  <path d="M7 10.5C7 8 9 6.5 12 6.5C15 6.5 17 8 17 10.5" stroke-dasharray="1 1"/>
  <path d="M12 2V4M8 3.5l1.5 1.5M16 3.5L14.5 5" stroke="currentColor" stroke-width="2"/>
</svg>
